<!--?xml version="1.0" encoding="utf-8"?-->
<!-- Generator: Adobe Illustrator 18.1.1, SVG Export Plug-In . SVG Version: 6.00 Build 0)  -->

<svg version="1.1" id="_x31_0" xmlns="http://www.w3.org/2000/svg" xmlns:xlink="http://www.w3.org/1999/xlink" x="0px" y="0px" viewBox="0 0 512 512" style="width: 256px; height: 256px; opacity: 1;" xml:space="preserve">
<style type="text/css">
	.st0{fill:#374149;}
</style>
<g>
	<path class="st0" d="M433.394,67.676C385.558,27.774,322.558,5.793,256,5.793c-66.558,0-129.558,21.981-177.398,61.883
		C27.914,109.965,0,167.035,0,228.382c0,77.66,46.562,149.11,121.023,189.254l5.844,41.672
		c2.707,19.266,15.484,35.633,33.527,42.926c6.59,2.668,13.52,3.973,20.406,3.973c11.965,0,23.797-3.938,33.531-11.539
		l56.422-44.062c61.07-3,118.356-24.578,162.641-61.524C484.082,346.801,512,289.726,512,228.382
		C512,167.035,484.082,109.965,433.394,67.676z M180.797,451.648l-9.949-70.89c-29.699-11.57-55.438-29.019-75.122-50.527
		c-0.281-0.305-0.586-0.598-0.863-0.906c-2.008-2.222-3.875-4.535-5.746-6.84c-0.835-1.035-1.73-2.035-2.542-3.086
		c-1.414-1.828-2.707-3.73-4.039-5.61c-1.102-1.554-2.258-3.082-3.301-4.668c-1.125-1.711-2.133-3.48-3.191-5.23
		c-1.07-1.77-2.188-3.519-3.184-5.32c-1.144-2.07-2.152-4.199-3.199-6.313c-0.734-1.488-1.531-2.957-2.218-4.465
		c-1.492-3.297-2.852-6.645-4.098-10.031c-0.118-0.32-0.262-0.629-0.379-0.95c-5.527-15.336-8.496-31.594-8.496-48.43
		c0-92.847,90.226-168.121,201.531-168.121c111.301,0,201.531,75.274,201.531,168.121c0,92.848-90.23,168.118-201.531,168.118
		c-1.453,0-2.89-0.066-4.336-0.094l-47.375,36.996L180.797,451.648z" style="fill: rgb(75, 75, 75);"></path>
</g>
</svg>
