<svg width="63" height="36" viewBox="0 0 63 36" fill="none" xmlns="http://www.w3.org/2000/svg">
<path d="M56.69 0H22.26C12.33 0 2.55001 8.06 0.420005 18C-1.71999 27.94 4.60001 36 14.52 36H25.41C26.88 36 28.33 34.81 28.65 33.33L30.17 26.27C30.49 24.8 29.55 23.6 28.08 23.6H15.97C13.21 23.6 11.26 21.47 11.77 18.71C12.3 15.85 15.09 13.51 17.93 13.51H36.97C38.44 13.51 39.38 14.7 39.06 16.18L35.37 33.34C35.05 34.81 35.99 36.01 37.46 36.01H46.29C47.76 36.01 49.21 34.82 49.53 33.34L53.22 16.18C53.54 14.71 54.99 13.51 56.46 13.51C57.93 13.51 59.38 12.32 59.7 10.84L62.03 0H56.7L56.69 0Z" fill="white"/>
</svg>
